<?xml version="1.0" standalone="no"?>
<!DOCTYPE svg PUBLIC "-//W3C//DTD SVG 20010904//EN"
 "http://www.w3.org/TR/2001/REC-SVG-20010904/DTD/svg10.dtd">
<svg version="1.0" xmlns="http://www.w3.org/2000/svg"
 width="21.000000pt" height="11.000000pt" viewBox="0 0 21.000000 11.000000"
 preserveAspectRatio="xMidYMid meet">
<metadata>
Created by potrace 1.16, written by Peter Selinger 2001-2019
</metadata>
<g transform="translate(0.000000,11.000000) scale(0.100000,-0.100000)"
fill="#000000" stroke="none">
<path d="M10 93 c0 -10 -3 -35 -6 -55 -6 -31 -4 -38 10 -38 9 0 19 7 22 15 4
8 14 15 24 15 11 0 22 5 26 12 5 7 10 4 15 -11 10 -26 31 -35 64 -27 33 8 33
36 0 36 -16 0 -25 6 -25 16 0 12 6 15 24 10 15 -4 28 0 36 9 10 12 8 16 -12
25 -26 12 -78 -1 -78 -20 0 -5 -9 -1 -20 10 -26 26 -80 27 -80 3z"/>
</g>
</svg>
