<svg height="15pt" viewBox="0 0 512 512" width="15pt" xmlns="http://www.w3.org/2000/svg"><path d="m458.667969 0h-405.335938c-29.394531 0-53.332031 23.914062-53.332031 53.332031v405.335938c0 29.417969 23.9375 53.332031 53.332031 53.332031h405.335938c29.394531 0 53.332031-23.914062 53.332031-53.332031v-405.335938c0-29.417969-23.9375-53.332031-53.332031-53.332031zm10.664062 53.332031v181.335938h-192v-192h181.335938c5.886719 0 10.664062 4.796875 10.664062 10.664062zm-416-10.664062h181.335938v192h-192v-181.335938c0-5.867187 4.777343-10.664062 10.664062-10.664062zm-10.664062 416v-181.335938h192v192h-181.335938c-5.886719 0-10.664062-4.796875-10.664062-10.664062zm416 10.664062h-181.335938v-192h192v181.335938c0 5.867187-4.777343 10.664062-10.664062 10.664062zm0 0"/></svg>